PathFileType	4	(X/Y/Z)	D:\TRACE\v60_Jaco2_6-2-23\ArmBody_Mo1_DMP_1-platform.trc
DataRate	CameraRate	NumFrames	NumMarkers	Units	OrigDataRate	OrigDataStartFrame	OrigNumFrames
100.00	100.00	      72	5	mm	100.00	2173	      5792
Frame#	Time	Left_Front			Right_Front			Left_Aft			Right_Aft			Post			
		X1	Y1	Z1	X2	Y2	Z2	X3	Y3	Z3	X4	Y4	Z4	X5	Y5	Z5	

2173	21.720				829.98016	-3.85744	-635.69061	-669.45874	16.00175	478.00778	748.40027	20.45910	580.45642	53.21130	1286.84326	-995.51312	
2174	21.730				830.00793	-4.08570	-635.64917	-669.43951	16.10217	477.98886	748.32233	20.68166	580.32141	53.18154	1286.33044	-996.03424	
2175	21.740				830.57654	-4.50004	-635.71301	-669.44897	16.29544	477.95569	748.27716	20.92342	580.28992	53.17561	1285.89758	-996.72607	
2176	21.750				830.59131	-4.72109	-635.50934	-669.31396	16.63852	477.95392	748.16302	21.14102	580.14911	53.17923	1285.27075	-997.37402	
2177	21.760				830.61584	-4.97318	-635.57343	-669.25482	16.97951	477.93011	748.24017	21.38975	580.07330	53.22160	1284.87231	-998.09003	
2178	21.770				830.42621	-5.32845	-635.79199	-669.27191	17.20615	477.76971	748.26923	21.67906	580.03021	53.17112	1284.44592	-998.91058	
2179	21.780				830.09204	-5.86782	-635.89734	-669.35938	17.43863	477.58527	748.19739	21.90554	579.83179	53.06376	1283.72192	-999.68018	
2180	21.790				830.19617	-6.45865	-636.08887	-669.52496	17.71975	477.53818	748.14362	22.25063	579.73254	52.92701	1283.27954	-1000.35864	
2181	21.800				829.90906	-6.75972	-635.99475	-669.66156	18.07561	477.42300	748.01868	22.59797	579.69452	52.71645	1282.76038	-1001.12610	
2182	21.810				829.69458	-6.98632	-636.05902	-669.89539	18.30097	477.30551	747.78204	22.81696	579.62189	52.74062	1282.20752	-1001.90106	
2183	21.820				829.47058	-7.23098	-636.23199	-670.36530	18.58961	477.23230	747.56494	23.23374	579.57629	52.26907	1281.59387	-1002.77533	
2184	21.830				829.18219	-7.57460	-636.52301	-670.72217	18.75113	477.15469	747.44763	23.51894	579.37848	52.14767	1281.07129	-1003.46539	
2185	21.840				828.85211	-7.98217	-636.63086	-671.00061	18.90922	477.11261	747.20111	23.80724	579.25348	51.87048	1280.48352	-1004.48511	
2186	21.850				828.69135	-8.27742	-636.57599	-671.15326	18.99125	477.11383	747.00598	24.07076	579.17120	51.80067	1279.86890	-1005.33844	
2187	21.860				828.51990	-8.68692	-636.53949	-671.28729	19.16312	476.95441	746.69360	24.42267	579.06714	51.76394	1279.31836	-1006.00165	
2188	21.870				828.25482	-8.98968	-636.63092	-671.52454	19.45411	476.76270	746.29248	24.68000	579.01868	51.34769	1279.09875	-1006.95050	
2189	21.880				827.97498	-9.40709	-636.60712	-671.86407	19.85686	476.56519	745.89221	24.78908	578.96478	50.93491	1278.65527	-1007.72260	
2190	21.890				827.69922	-9.65589	-636.57904	-672.18835	20.06063	476.51392	745.59216	24.93197	578.89984	50.70169	1277.98730	-1008.24854	
2191	21.900				827.08276	-10.01159	-636.70514	-672.44617	20.12377	476.55115	745.30725	25.23644	578.86963	50.07746	1277.50793	-1009.00769	
2192	21.910				826.80566	-10.14559	-636.67004	-673.00568	20.36565	476.49347	744.90985	25.60124	578.85358	49.85489	1277.29346	-1009.44702	
2193	21.920				826.40283	-10.36031	-636.81152	-673.38171	20.55843	476.46753	744.58521	25.88126	578.81561	49.40398	1276.79858	-1009.94501	
2194	21.930				825.90448	-10.72184	-637.05035	-673.53033	20.33055	476.54221	744.08307	25.99385	578.68335	48.77002	1276.22363	-1010.39374	
2195	21.940				825.73438	-11.17089	-637.33582	-674.13049	20.76993	476.49295	743.42047	26.16278	578.49603	48.31108	1275.76904	-1010.88171	
2196	21.950				825.31281	-11.69746	-637.56927	-674.59338	21.00495	476.47745	742.91199	26.36973	578.40704	48.05300	1275.23621	-1011.39874	
2197	21.960				824.76434	-11.84096	-637.34448	-674.91327	21.18539	476.39221	742.54004	26.68158	578.29614	47.74259	1274.72070	-1011.94104	
2198	21.970				824.24811	-11.91076	-637.31311	-675.25146	21.04941	476.50317	742.27240	26.88861	578.17358	47.42657	1274.41931	-1012.62665	
2199	21.980				823.84961	-12.07836	-637.38574	-675.63037	21.37857	476.37476	741.49762	27.03262	578.13379	46.81231	1273.89746	-1013.33887	
2200	21.990				823.24841	-12.41741	-637.43317	-676.07385	21.57797	476.15488	740.99707	27.21073	578.00146	46.41632	1273.53894	-1014.07153	
2201	22.000				822.78302	-12.85400	-637.58606	-676.60376	21.71433	475.95377	740.55029	27.47112	577.89978	45.88929	1273.18750	-1014.91858	
2202	22.010				822.15271	-13.26376	-637.70618	-677.33069	22.22396	475.89224	740.23169	27.71702	577.91217	45.25583	1272.65588	-1015.64636	
2203	22.020				821.82343	-13.27567	-637.63342	-677.98932	22.59922	475.90103	739.84058	27.97671	577.88470	44.75409	1272.22742	-1016.32977	
2204	22.030				821.46643	-13.34719	-637.52289	-678.37036	22.89792	475.79971	739.37524	28.23906	577.89697	44.17770	1271.89221	-1017.02655	
2205	22.040				820.95123	-13.52924	-637.51904	-678.55743	22.60496	475.87527	738.66663	28.42866	577.77100	43.61921	1271.38208	-1017.64130	
2206	22.050				820.23120	-14.05305	-637.56085	-679.42603	23.16436	475.79468	738.03802	28.62727	577.64703	43.36720	1270.98071	-1018.13367	
2207	22.060				819.65601	-14.44845	-637.75519	-680.10828	23.22202	475.69556	737.71375	28.85551	577.51959	42.77710	1270.47510	-1018.60608	
2208	22.070				819.17377	-14.71373	-637.85559	-680.63794	23.37912	475.58481	737.19360	29.34603	577.40588	42.28174	1269.67090	-1018.97607	
2209	22.080				818.65826	-14.97287	-638.01123	-681.03430	23.59164	475.34167	736.24457	29.44502	577.25726	41.69856	1269.31262	-1019.52338	
2210	22.090				817.99036	-15.24246	-637.84094	-681.77002	24.03888	475.19009	735.66321	29.61746	577.11914	41.07254	1268.95996	-1020.35828	
2211	22.100				817.26312	-15.42617	-637.95239	-682.53870	24.10456	475.06842	735.23828	29.77372	577.06042	40.65522	1268.54272	-1020.98926	
2212	22.110				816.51245	-15.57078	-638.11328	-682.90625	23.91259	475.36118	734.58362	30.04305	576.98035	39.96702	1268.03455	-1021.55609	
2213	22.120				815.94482	-15.91023	-638.26685	-683.26349	23.92808	475.32867	733.84735	30.21393	576.94238	39.41989	1267.64502	-1022.57190	
2214	22.130				815.41833	-16.25087	-638.31104	-684.06982	24.08253	475.13763	733.32617	30.34523	576.85706	38.87858	1267.57092	-1023.13971	
2215	22.140				814.98187	-16.24487	-638.02319	-685.04108	24.46042	475.06238	732.96558	30.52351	576.84161	37.98668	1267.40698	-1023.78467	
2216	22.150				814.12372	-16.10398	-638.03949	-685.72742	24.74556	474.97900	732.33154	30.71420	576.72803	37.23674	1267.25146	-1024.33423	
2217	22.160				813.53583	-16.33649	-638.14063	-686.29877	24.63817	474.79468	731.24988	30.64182	576.80011	36.44779	1267.06677	-1024.59692	
2218	22.170				812.67621	-16.57557	-638.38300	-686.89221	24.77785	474.90176	730.50208	30.77667	576.78125	35.92536	1266.83435	-1024.78503	
2219	22.180				811.81836	-16.74885	-638.57825	-687.75391	25.08143	474.97897	730.14014	30.94728	576.74786	34.87587	1266.43787	-1025.02258	
2220	22.190				811.28027	-17.01497	-638.34296	-688.49023	25.00382	474.86658	729.49548	31.07178	576.72516	34.28370	1266.34705	-1025.05493	
2221	22.200				810.66956	-17.06061	-638.19421	-689.16223	24.98522	474.58829	728.49115	31.01389	576.66052	33.86411	1266.28442	-1024.91809	
2222	22.210				809.95612	-17.12346	-638.24658	-689.96924	25.09943	474.55292	727.61096	31.20487	576.69995	33.13449	1266.03503	-1024.78601	
2223	22.220				809.22107	-17.33074	-638.38892	-690.72992	25.31251	474.53729	726.97125	31.34447	576.54187	31.94084	1265.84106	-1024.64746	
2224	22.230				808.27356	-17.77725	-638.50342	-691.39630	25.52254	474.51419	726.67279	31.92032	576.70404	31.32743	1265.58154	-1024.61731	
2225	22.240				807.55249	-17.90052	-638.47382	-692.29053	25.63327	474.55301	725.93335	32.07620	576.56128	30.61531	1265.16418	-1024.56616	
2226	22.250				807.08350	-18.12843	-638.62512	-692.85516	25.14745	474.51743	724.83087	31.78288	576.37299	29.87413	1264.82227	-1024.85083	
2227	22.260				806.08313	-17.91822	-638.61700	-693.43738	25.24687	474.40030	723.66595	31.75672	576.38800	29.33408	1264.78516	-1025.19666	
2228	22.270				805.16699	-17.95450	-638.64069	-694.35138	25.51280	474.46887	723.13245	31.98194	576.30621	28.34783	1264.74670	-1025.84668	
2229	22.280				804.17139	-18.25483	-638.61859	-695.39563	25.81612	474.40198	722.30756	32.00937	576.27277	27.33393	1264.66089	-1026.38110	
2230	22.290				803.48187	-18.34706	-638.74524	-696.02728	25.65454	474.26837	721.35553	32.01560	576.24377	26.51667	1264.42749	-1027.13281	
2231	22.300				802.62811	-18.29322	-638.92328	-697.16345	25.90417	474.25555	720.62781	32.02738	576.31934	25.64828	1264.24670	-1027.73120	
2232	22.310				801.83936	-18.39057	-638.81134	-697.91278	26.13880	474.24460	719.87952	31.98854	576.29657	25.37664	1264.10364	-1028.14783	
2233	22.320				801.14136	-18.40526	-638.52258	-698.27808	25.77477	474.35040	718.50067	32.04456	576.24738	24.14076	1263.99963	-1028.61414	
2234	22.330				800.31793	-18.53325	-638.64917	-699.56323	25.68889	474.48029	718.13458	32.21750	576.26160	23.33368	1263.89319	-1029.14404	
2235	22.340				799.60760	-18.40087	-638.74902	-700.00659	25.51473	474.53815	717.40942	32.22265	576.28760	22.47142	1263.79407	-1029.15210	
2236	22.350				798.28229	-18.55222	-638.72314	-700.84528	25.72500	474.52719	716.36774	32.19497	576.20673	21.83148	1263.78088	-1029.32898	
2237	22.360				797.57916	-18.58880	-638.64227	-702.16394	26.12696	474.34811	715.61072	32.37766	576.18835	20.64405	1263.75488	-1029.16870	
2238	22.370				796.86810	-18.54833	-638.90759	-703.08600	26.14617	474.14774	714.68121	32.31350	576.08209	20.07075	1263.77502	-1029.09424	
2239	22.380				795.82379	-18.68939	-639.01544	-703.87384	26.32110	473.98624	713.62805	32.32254	576.04407	19.13466	1263.72021	-1028.60486	
2240	22.390				794.84247	-18.81160	-638.79541	-704.90686	26.53160	474.06345	712.84509	32.20215	576.08002	18.04966	1263.76697	-1028.29126	
2241	22.400				793.86316	-18.79907	-638.89508	-705.43036	25.58826	474.27856	711.68921	32.22546	575.98645	17.60697	1263.58801	-1027.97034	
2242	22.410				793.24524	-18.79795	-638.90234	-706.41919	25.84883	474.25165	710.92975	32.38433	576.08032	16.12500	1263.58704	-1027.55420	
2243	22.420				792.13544	-18.61312	-638.76642	-707.30090	25.93130	474.18286	710.29144	32.42078	576.12231	15.38574	1263.54736	-1027.31934	
2244	22.430				791.30396	-18.90997	-638.70380	-708.20111	26.07294	473.98544	709.19598	32.34539	576.05786	14.53155	1263.70239	-1027.15588	
